<svg xmlns="http://www.w3.org/2000/svg" viewBox="0 0 70.5 95.5" width="70.5" height="95.5"><path d="M63.461 95.092H6.794c-3.682 0-6.666-2.934-6.666-6.552V13.195c0-3.618 2.984-6.552 6.666-6.552h56.667c3.682 0 6.667 2.934 6.667 6.552V88.54c0 3.618-2.985 6.552-6.667 6.552z" fill="#e1c3a0"/><path d="M63.461 90.178H6.794c-.92 0-1.667-.734-1.667-1.638V13.195c0-.904.747-1.638 1.667-1.638h56.667c.92 0 1.667.734 1.667 1.638V88.54c0 .904-.747 1.638-1.667 1.638z" fill="#eff2fa"/><path d="M45.128 6.643h-5V5.005c0-2.713-2.239-4.913-5-4.913-2.762 0-5 2.2-5 4.913v1.638h-5c-1.841 0-3.334 1.467-3.334 3.276v3.276h26.667V9.92c0-1.81-1.493-3.276-3.333-3.276zm-10 0c-.92 0-1.667-.733-1.667-1.638 0-.904.746-1.638 1.667-1.638.92 0 1.666.734 1.666 1.638 0 .905-.746 1.638-1.666 1.638z" fill="#c7cfe2"/><path d="M48.461 14.833H21.794c-.92 0-1.667-.734-1.667-1.638 0-.905.747-1.638 1.667-1.638h26.667c.92 0 1.667.733 1.667 1.638 0 .905-.747 1.638-1.667 1.638z" fill="#afb9d2"/><path d="M18.46 37.764c-.426 0-.852-.16-1.177-.48l-5-4.914a1.618 1.618 0 0 1 0-2.316 1.687 1.687 0 0 1 2.356 0l3.822 3.756 7.155-7.032a1.687 1.687 0 0 1 2.357 0c.65.64.65 1.677 0 2.316l-8.334 8.19c-.325.32-.752.48-1.178.48z" fill="#82889d"/><path d="M46.794 31.212H33.461c-.92 0-1.667-.733-1.667-1.638 0-.904.746-1.638 1.667-1.638h13.333c.92 0 1.667.734 1.667 1.638 0 .905-.746 1.638-1.667 1.638z" fill="#afb9d2" opacity=".97"/><path d="M55.128 37.764H33.46c-.92 0-1.667-.734-1.667-1.638 0-.905.746-1.638 1.667-1.638h21.667c.92 0 1.666.733 1.666 1.638 0 .905-.746 1.638-1.666 1.638z" fill="#c7cfe2" opacity=".97"/><path d="M18.46 77.074c-.426 0-.852-.16-1.177-.48l-5-4.913a1.618 1.618 0 0 1 0-2.317 1.687 1.687 0 0 1 2.356 0l3.822 3.756 7.155-7.031a1.687 1.687 0 0 1 2.357 0c.65.64.65 1.676 0 2.316l-8.334 8.19c-.325.32-.752.48-1.178.48z" fill="#82889d"/><path d="M46.794 70.523H33.461c-.92 0-1.667-.734-1.667-1.638 0-.905.746-1.638 1.667-1.638h13.333c.92 0 1.667.733 1.667 1.638 0 .904-.746 1.638-1.667 1.638z" fill="#afb9d2" opacity=".97"/><path d="M55.128 77.074H33.46c-.92 0-1.667-.733-1.667-1.638 0-.904.746-1.638 1.667-1.638h21.667c.92 0 1.666.734 1.666 1.638 0 .905-.746 1.638-1.666 1.638z" fill="#c7cfe2" opacity=".97"/><path d="M18.46 57.42c-.426 0-.852-.16-1.177-.48l-5-4.915a1.618 1.618 0 0 1 0-2.316 1.687 1.687 0 0 1 2.356 0l3.822 3.756 7.155-7.032a1.687 1.687 0 0 1 2.357 0c.65.64.65 1.677 0 2.317l-8.334 8.19c-.325.32-.752.48-1.178.48z" fill="#82889d"/><path d="M46.794 50.867H33.461c-.92 0-1.667-.733-1.667-1.638 0-.904.746-1.638 1.667-1.638h13.333c.92 0 1.667.734 1.667 1.638 0 .905-.746 1.638-1.667 1.638z" fill="#afb9d2" opacity=".97"/><path d="M55.128 57.42H33.46c-.92 0-1.667-.734-1.667-1.639 0-.904.746-1.638 1.667-1.638h21.667c.92 0 1.666.734 1.666 1.638 0 .905-.746 1.638-1.666 1.638z" fill="#c7cfe2" opacity=".97"/></svg>