<svg xmlns="http://www.w3.org/2000/svg" viewBox="0 0 70.5 68.5" width="70.5" height="68.5"><path d="M67.822 14.7c-.666 0-1.206.54-1.206 1.205v9.633h-4.824V15.152a1.205 1.205 0 0 0-2.412 0v10.386h-5.1V14.3c0-.666-.54-1.204-1.207-1.204-.666 0-1.206.538-1.206 1.204v11.238h-5.15V13.296a1.205 1.205 0 0 0-2.412 0v12.243h-4.88l-.548-13.237c-.028-.665-.622-1.177-1.255-1.154a1.204 1.204 0 0 0-1.155 1.253l.545 13.138h-5.088L30.074 11a1.207 1.207 0 0 0-2.393.303l1.811 14.235h-5.644l-3.35-15.507a1.205 1.205 0 0 0-2.358.508l3.24 15h-5.654L9.095 3.69a3.614 3.614 0 0 0-2.754-2.495L1.728.275a1.197 1.197 0 0 0-1.42.943c-.13.653.294 1.287.947 1.417l4.612.921c.438.088.79.407.92.833l11.495 37.877-6.289 11.663a3.58 3.58 0 0 0 .078 3.566 3.591 3.591 0 0 0 3.107 1.76H65.41a1.204 1.204 0 1 0 0-2.408H15.178c-.618 0-.93-.41-1.035-.587a1.183 1.183 0 0 1-.026-1.189l6.214-11.523 45.35-3.396a3.63 3.63 0 0 0 3.347-3.602V15.905c0-.666-.54-1.204-1.206-1.204zM20.456 41.124l-4-13.176H21.9l2.778 12.86-4.222.316zm6.65-.498l-2.738-12.678h5.43l1.573 12.359-4.264.32zm6.674-.5l-1.55-12.178h4.882l.493 11.892-3.825.287zm10.525-.788l-4.294.322-.485-11.712h4.78v11.39zm7.562-.566l-5.15.386v-11.21h5.15V38.77zm7.513-.562l-5.1.382V27.947h5.1v10.262zm7.236-1.66a1.21 1.21 0 0 1-1.116 1.202l-3.708.277V27.947h4.824v8.603z" fill="#a2aac2"/><g fill="#5b5d6e" transform="matrix(.13662 0 0 .13641 .285 -.954)"><circle cx="132.414" cy="476.7" r="26.483"/><circle cx="450.208" cy="476.7" r="26.483"/></g><path d="M18.376 65.276a1.47 1.47 0 0 1-1.443-1.18l-.97-4.84h4.825l-.97 4.84a1.47 1.47 0 0 1-1.442 1.18zm43.416 0a1.47 1.47 0 0 1-1.442-1.18l-.97-4.84h4.824l-.97 4.84a1.47 1.47 0 0 1-1.442 1.18z" fill="#c7cfe2"/><path d="M69.174 14.71l-58.92-7.204.764 2.519L68.882 17.1a1.204 1.204 0 0 0 .292-2.39z" fill="#959cb3"/><path fill="#e6af78" d="M17.138 51.35l8.95 7.943 8.948-7.942V44.4H17.138z"/><path d="M48.873 54.602L36.57 51.71a1.972 1.972 0 0 1-.517-.208l-9.965 5.805-9.577-6.086a1.98 1.98 0 0 1-.905.489L3.301 54.6a3.972 3.972 0 0 0-3.067 3.866v7.776c0 1.097.89 1.985 1.989 1.985H49.95a1.987 1.987 0 0 0 1.988-1.985v-7.776a3.972 3.972 0 0 0-3.066-3.865z" fill="#eff2fa"/><path d="M17.138 44.401v7.333c11.273 4.055 17.898-6.095 17.898-6.095v-1.238H17.138z" fill="#d29b6e"/><path d="M13.16 21.566l.867 19.034a5.955 5.955 0 0 0 2.38 4.495l4.112 3.079a5.973 5.973 0 0 0 3.58 1.191h3.976a5.972 5.972 0 0 0 3.58-1.191l4.112-3.079a5.953 5.953 0 0 0 2.38-4.495l.866-19.034H13.161z" fill="#f0c087"/><path d="M23.104 25.537c3.977 0 9.943-.993 11.359-3.97H13.16l.866 19.033a5.955 5.955 0 0 0 2.38 4.495l4.112 3.079a5.973 5.973 0 0 0 3.58 1.191h1.988c-1.988 0-5.966-3.97-5.966-8.935V28.516c0-.993.994-2.979 2.983-2.979z" fill="#e6af78"/><path d="M44.64 61.786l6.443-5.78a3.96 3.96 0 0 1 .857 2.461v7.776c0 1.097-.89 1.986-1.989 1.986h-6.96v-2.751c0-1.409.6-2.751 1.649-3.692zm-37.106 0l-6.443-5.78a3.96 3.96 0 0 0-.857 2.461v7.776c0 1.097.891 1.986 1.989 1.986h6.96v-2.751a4.96 4.96 0 0 0-1.649-3.692z" fill="#e4eaf6"/><path fill="#5b5d6e" d="M24.223 59.293h3.729l.62 8.936h-4.97z"/><path d="M28.573 57.308H23.6v.722a2.258 2.258 0 0 0 2.26 2.256h.452c1.248 0 2.26-1.01 2.26-2.256v-.722z" fill="#515262"/><g fill="#e4eaf6"><path d="M16.998 49.14l9.09 8.168s-2.546 1.282-5.687 3.868a1.277 1.277 0 0 1-1.976-.446l-4.27-9.38 1.35-2.023a.996.996 0 0 1 1.493-.187z"/><path d="M35.176 49.14l-9.089 8.168s2.545 1.282 5.686 3.868a1.277 1.277 0 0 0 1.976-.446l4.27-9.38-1.35-2.023a.996.996 0 0 0-1.493-.187z"/></g><path d="M32.115 14.989l.932 6.577c4.255.85 4.869 7.518 4.957 9.422.016.346.127.68.314.97l1.624 2.515s-.556-4.157 1.988-6.95c0 0 .875-16.506-9.815-12.534z" fill="#785550"/><path d="M40.94 34.048l-1.123 4.485a1.195 1.195 0 0 1-2.346-.141l-.575-4.587a2.056 2.056 0 0 1 2.043-2.31h.003a2.056 2.056 0 0 1 1.998 2.553z" fill="#f0c087"/><path d="M14.113 13.21l1.471 1.003c-6.65 4.902-5.407 13.31-5.407 13.31 1.989 1.986 1.989 6.95 1.989 6.95l1.988-1.986s-.767-5.735 2.983-7.942c3.48-2.048 6.526-.993 9.633-.993 8.327 0 10.658-3.134 10.254-6.95-.209-1.974-3.232-6.088-10.937-5.957-3.11.053-8.949.993-11.974 2.565z" fill="#694b4b"/><path d="M13.534 22.683s-1.057-4.157 2.05-8.47c-6.65 4.902-5.406 13.31-5.406 13.31 1.988 1.986 1.988 6.95 1.988 6.95l1.989-1.986s-.768-5.735 2.983-7.942c3.48-2.048 6.525-.993 9.632-.993 1.355 0 2.535-.09 3.586-.246-6.413.215-10.194-4.636-16.822-.623z" fill="#5a4146"/><path d="M11.234 34.048l1.123 4.485a1.195 1.195 0 0 0 2.346-.141l.574-4.587a2.056 2.056 0 0 0-2.042-2.31h-.004a2.056 2.056 0 0 0-1.997 2.553z" fill="#e6af78"/><path d="M38.2 66.243h-5.333c-.999 0-1.808.808-1.808 1.806v.18h8.949v-.18c0-.998-.81-1.806-1.808-1.806z" fill="#e4eaf6"/><path d="M53.785 25.096c-6.867 0-12.453-5.578-12.453-12.434C41.332 5.807 46.918.23 53.785.23c6.866 0 12.452 5.578 12.452 12.433 0 6.856-5.586 12.434-12.452 12.434z" fill="#c3e678"/><path d="M59.596 20.951c-6.866 0-12.453-5.578-12.453-12.433 0-2.87.989-5.508 2.63-7.615-4.901 1.672-8.44 6.306-8.44 11.76 0 6.855 5.585 12.433 12.452 12.433 3.992 0 7.541-1.893 9.822-4.82-1.26.43-2.607.675-4.011.675z" fill="#a5d76e"/><path d="M51.208 19.093a.856.856 0 0 1-.607-.251l-5.153-5.145a.856.856 0 0 1 0-1.212.86.86 0 0 1 1.215 0l4.545 4.538 8.84-8.826a.86.86 0 0 1 1.214 0 .856.856 0 0 1 0 1.213l-9.447 9.432a.856.856 0 0 1-.607.251z" fill="#fff"/></svg>