<svg xmlns="http://www.w3.org/2000/svg" viewBox="0 0 70.5 68.5" width="70.5" height="68.5"><path d="M67.721 14.907a1.21 1.21 0 0 0-1.207 1.214v9.71h-4.827V15.363c0-.67-.54-1.214-1.207-1.214a1.21 1.21 0 0 0-1.207 1.214v10.47h-5.105v-11.33c0-.67-.54-1.213-1.207-1.213a1.21 1.21 0 0 0-1.207 1.214v11.329H46.6V13.49a1.21 1.21 0 0 0-1.207-1.214 1.21 1.21 0 0 0-1.207 1.214v12.341h-4.882l-.55-13.343a1.232 1.232 0 0 0-1.255-1.163 1.21 1.21 0 0 0-1.156 1.262l.545 13.244h-5.092l-1.85-14.656a1.21 1.21 0 0 0-1.35-1.051 1.213 1.213 0 0 0-1.045 1.357l1.812 14.35h-5.648l-3.353-15.633a1.206 1.206 0 1 0-2.36.513l3.243 15.12h-5.659L8.951 3.808a3.627 3.627 0 0 0-2.756-2.516L1.58.364a1.198 1.198 0 0 0-1.42.952 1.212 1.212 0 0 0 .946 1.428l4.615.928c.439.09.791.41.92.84l11.504 38.183-6.293 11.757a3.631 3.631 0 0 0 .078 3.594 3.589 3.589 0 0 0 3.11 1.775h50.268a1.21 1.21 0 0 0 1.207-1.214 1.21 1.21 0 0 0-1.207-1.214H15.04c-.62 0-.932-.414-1.036-.592a1.2 1.2 0 0 1-.026-1.198l6.218-11.616 45.382-3.424c1.879-.14 3.351-1.736 3.351-3.63V16.12a1.21 1.21 0 0 0-1.207-1.214zM20.32 41.542L16.318 28.26h5.448l2.78 12.964-4.226.318zm6.656-.502l-2.741-12.78h5.435l1.573 12.458-4.267.322zm6.678-.503l-1.55-12.277h4.884l.494 11.988-3.828.289zm10.533-.795l-4.297.324-.486-11.807h4.783v11.483zm7.567-.57l-5.154.388v-11.3h5.154v10.912zm7.519-.568l-5.105.385V28.26h5.105v10.345zm7.241-1.672c0 .632-.49 1.163-1.117 1.21l-3.71.28V28.26h4.827v8.672z" fill="#a2aac2"/><g fill="#5b5d6e" transform="matrix(.13672 0 0 .13751 .135 -.874)"><circle cx="132.414" cy="476.7" r="26.483"/><circle cx="450.208" cy="476.7" r="26.483"/></g><path d="M18.238 65.89a1.474 1.474 0 0 1-1.443-1.19l-.97-4.88h4.827l-.97 4.88a1.474 1.474 0 0 1-1.444 1.19zm43.449 0a1.474 1.474 0 0 1-1.444-1.19l-.97-4.88H64.1l-.97 4.88a1.475 1.475 0 0 1-1.443 1.19z" fill="#c7cfe2"/><path d="M69.074 14.916L10.11 7.654l.765 2.54 57.907 7.131a1.208 1.208 0 0 0 1.344-1.057 1.21 1.21 0 0 0-1.052-1.352z" fill="#959cb3"/><path d="M23.522 9.206c-20.63 0-18.342 25.232-18.247 43.517.003.69.363 1.313.95 1.67 2.287 1.386 8.565 4.626 17.297 4.626 8.733 0 15.011-3.24 17.297-4.626.588-.357.948-.98.951-1.67.094-18.285 2.381-43.517-18.248-43.517z" fill="#694b4b"/><path d="M22.193 9.258C3.007 10.34 5.183 34.845 5.275 52.723c.003.69.363 1.313.95 1.67 2.287 1.386 8.565 4.626 17.297 4.626l5.213-36.704" fill="#5a4146"/><path d="M23.522 9.206c-11.73 0-12.544 14.256-12.544 14.256 6.76-1.147 10.915 1.72 17.757-1.147L23.522 59.02c8.733 0 15.01-3.24 17.297-4.626.588-.357.948-.98.95-1.67.095-18.285 2.382-43.517-18.247-43.517z" fill="#694b4b"/><path d="M41.77 52.723c.08-15.712 1.767-36.538-10.845-42.092-.22 1.15-.619 4.358.417 6.44 2.606 5.244 5.213 5.244 7.82 9.177 2.606 14.419-4.98 29.724-7.5 31.807 4.464-1.068 7.664-2.758 9.156-3.662.589-.357.948-.98.952-1.67z" fill="#785550"/><path d="M43.272 56.7l-11.63-4.874a2.621 2.621 0 0 1-1.604-2.42v-3.168H17.006v3.168a2.622 2.622 0 0 1-1.605 2.42L3.771 56.7a3.933 3.933 0 0 0-2.405 3.63v5.243a2.614 2.614 0 0 0 2.606 2.622h39.1a2.614 2.614 0 0 0 2.606-2.622V60.33c0-1.588-.949-3.02-2.406-3.63z" fill="#e6af78"/><path d="M43.272 56.7l-11.244-4.712-8.506 3.692-8.506-3.692L3.772 56.7a3.933 3.933 0 0 0-2.406 3.63v5.243a2.614 2.614 0 0 0 2.607 2.622h39.099a2.614 2.614 0 0 0 2.607-2.622V60.33c0-1.588-.95-3.02-2.407-3.63z" fill="#b4e1fa"/><path d="M30.038 46.238H17.006v3.168a2.622 2.622 0 0 1-1.605 2.42l-1.816.761c13.9 3.565 16.453-6.349 16.453-6.349z" fill="#d29b6e"/><g fill="#a0d2f0"><path d="M7.718 61.77l-5.231-4.184a3.934 3.934 0 0 0-1.121 2.744v5.243a2.614 2.614 0 0 0 2.606 2.622h5.214v-3.354a3.94 3.94 0 0 0-1.468-3.07zm37.96 3.804V60.33c0-1.04-.413-2.009-1.104-2.728l-5.248 4.169a3.94 3.94 0 0 0-1.467 3.07v3.354h5.213a2.614 2.614 0 0 0 2.606-2.621zm-22.084 0h-.145c-.68 0-1.23-.555-1.23-1.239v-8.652h2.606v8.652c0 .684-.55 1.239-1.23 1.239z"/><path d="M23.522 55.68l-7.46-5.627a1.04 1.04 0 0 0-1.493.257l-1.474 2.224 4.573 6.44c.348.49 1.033.585 1.5.209l4.354-3.503zm0 0l7.46-5.627a1.04 1.04 0 0 1 1.493.257l1.474 2.224-4.573 6.44a1.038 1.038 0 0 1-1.5.209l-4.354-3.503z"/></g><path d="M30.038 21.004c-6.516 6.555-19.305 1.311-19.305 11.798l.81 7.724a5.244 5.244 0 0 0 2.66 4.11l7.42 4.146a3.89 3.89 0 0 0 3.798 0l7.42-4.147a5.245 5.245 0 0 0 2.66-4.109l.935-9.174c.066-.652.08-1.308.058-1.962-.487-3.337-5.152-5.764-6.456-8.386z" fill="#f0c087"/><path d="M10.733 32.802l.81 7.724a5.244 5.244 0 0 0 2.66 4.11l7.42 4.146c.82.458 1.76.577 2.654.399 0 0-3.742-1.14-5.968-7.203-.682-1.857-1.63-11.689-.815-12.89 1.61-2.375 10.59-2.622 13.243-7.028a7.444 7.444 0 0 1-.363-.491l-.029-.04a4.973 4.973 0 0 1-.307-.524c-6.516 6.554-19.305 1.31-19.305 11.797z" fill="#e6af78"/><path d="M32.79 65.574h-2.896a2.47 2.47 0 0 0-2.462 2.476v.146h7.82v-.146a2.468 2.468 0 0 0-2.462-2.476z" fill="#a0d2f0"/><path d="M53.673 25.386c-6.871 0-12.461-5.623-12.461-12.534 0-6.911 5.59-12.534 12.461-12.534s12.462 5.623 12.462 12.534c0 6.91-5.59 12.534-12.462 12.534z" fill="#c3e678"/><path d="M59.488 21.208c-6.87 0-12.461-5.623-12.461-12.534 0-2.893.989-5.552 2.632-7.676-4.905 1.686-8.447 6.357-8.447 11.854 0 6.91 5.59 12.534 12.461 12.534 3.995 0 7.548-1.909 9.83-4.858a12.32 12.32 0 0 1-4.015.68z" fill="#a5d76e"/><path d="M51.095 19.335a.854.854 0 0 1-.608-.253l-5.156-5.187a.868.868 0 0 1 0-1.222.856.856 0 0 1 1.215 0l4.549 4.575L59.94 8.35a.856.856 0 0 1 1.215 0 .868.868 0 0 1 0 1.222l-9.454 9.509a.854.854 0 0 1-.607.253z" fill="#fff"/></svg>